<?xml version="1.0" standalone="no"?>
<!DOCTYPE svg PUBLIC "-//W3C//DTD SVG 20010904//EN"
 "http://www.w3.org/TR/2001/REC-SVG-20010904/DTD/svg10.dtd">
<svg version="1.0" xmlns="http://www.w3.org/2000/svg"
 width="500.000000pt" height="500.000000pt" viewBox="0 0 500.000000 500.000000"
 preserveAspectRatio="xMidYMid meet">
<metadata>
Created by potrace 1.14, written by Peter Selinger 2001-2017
</metadata>
<g transform="translate(0.000000,500.000000) scale(0.100000,-0.100000)"
fill="#000000" stroke="none">
<path d="M134 3316 l-34 -34 0 -661 0 -661 29 -32 29 -33 301 -3 300 -3 -4
-27 c-2 -15 -7 -57 -10 -94 l-7 -68 -49 0 c-49 0 -50 -1 -47 -27 l3 -28 338
-3 337 -2 0 30 c0 29 -2 30 -45 30 -28 0 -47 5 -50 13 -2 6 -6 49 -10 95 l-6
82 290 0 291 0 38 34 37 34 3 639 c2 445 0 649 -8 676 -7 25 -22 45 -43 57
-31 19 -57 20 -841 20 l-808 0 -34 -34z m1660 -48 c11 -15 16 -45 16 -90 l0
-68 -825 0 -825 0 0 74 c0 54 4 79 16 90 14 14 101 16 809 16 l794 0 15 -22z
m16 -648 l0 -430 -825 0 -825 0 0 430 0 430 825 0 825 0 0 -430z m0 -558 c0
-45 -5 -75 -16 -90 l-15 -22 -791 0 c-722 0 -793 1 -810 17 -14 13 -18 31 -18
90 l0 73 825 0 825 0 0 -68z m-660 -206 c0 -18 3 -61 6 -95 l7 -61 -182 0
-181 0 5 38 c2 20 7 63 10 95 l6 57 165 0 164 0 0 -34z"/>
<path d="M220 3200 c0 -27 3 -30 30 -30 27 0 30 3 30 30 0 27 -3 30 -30 30
-27 0 -30 -3 -30 -30z"/>
<path d="M340 3200 c0 -27 3 -30 30 -30 27 0 30 3 30 30 0 27 -3 30 -30 30
-27 0 -30 -3 -30 -30z"/>
<path d="M460 3200 c0 -27 3 -30 30 -30 27 0 30 3 30 30 0 27 -3 30 -30 30
-27 0 -30 -3 -30 -30z"/>
<path d="M433 2874 c-24 -73 -25 -86 -13 -95 30 -18 44 -3 72 80 29 88 27 100
-14 101 -12 0 -24 -23 -45 -86z"/>
<path d="M282 2907 c-18 -18 -32 -37 -32 -43 0 -6 16 -25 35 -44 34 -33 35
-33 55 -15 18 16 19 20 5 35 -19 21 -19 34 0 50 14 12 14 15 -1 31 -23 25 -25
24 -62 -14z"/>
<path d="M582 2928 c-16 -16 -15 -33 3 -48 14 -12 14 -15 -1 -31 -36 -40 12
-75 52 -38 46 43 47 55 13 94 -33 37 -48 42 -67 23z"/>
<path d="M250 2680 c0 -27 3 -30 30 -30 27 0 30 3 30 30 0 27 -3 30 -30 30
-27 0 -30 -3 -30 -30z"/>
<path d="M370 2680 l0 -30 230 0 230 0 0 30 0 30 -230 0 -230 0 0 -30z"/>
<path d="M890 2680 c0 -27 3 -30 30 -30 27 0 30 3 30 30 0 27 -3 30 -30 30
-27 0 -30 -3 -30 -30z"/>
<path d="M250 2560 c0 -27 3 -30 30 -30 27 0 30 3 30 30 0 27 -3 30 -30 30
-27 0 -30 -3 -30 -30z"/>
<path d="M370 2560 l0 -30 400 0 400 0 0 30 0 30 -400 0 -400 0 0 -30z"/>
<path d="M1230 2560 l0 -30 90 0 90 0 0 30 0 30 -90 0 -90 0 0 -30z"/>
<path d="M250 2440 c0 -27 3 -30 30 -30 27 0 30 3 30 30 0 27 -3 30 -30 30
-27 0 -30 -3 -30 -30z"/>
<path d="M370 2440 l0 -30 290 0 290 0 0 30 0 30 -290 0 -290 0 0 -30z"/>
<path d="M250 2315 c0 -34 2 -36 28 -33 23 3 27 8 27 33 0 25 -4 30 -27 33
-26 3 -28 1 -28 -33z"/>
<path d="M374 2336 c-3 -8 -4 -23 -2 -33 3 -17 27 -18 443 -18 l440 0 0 30 0
30 -438 3 c-375 2 -438 0 -443 -12z"/>
<path d="M1320 2315 c0 -34 2 -36 28 -33 23 3 27 8 27 33 0 25 -4 30 -27 33
-26 3 -28 1 -28 -33z"/>
<path d="M1444 2336 c-11 -29 1 -51 29 -54 25 -3 27 -1 27 32 0 32 -3 36 -25
36 -14 0 -28 -6 -31 -14z"/>
<path d="M950 2040 c0 -27 3 -30 30 -30 27 0 30 3 30 30 0 27 -3 30 -30 30
-27 0 -30 -3 -30 -30z"/>
<path d="M2312 3158 c-5 -7 -15 -98 -21 -203 -10 -173 -10 -191 5 -202 11 -8
23 -9 35 -3 18 10 26 60 32 190 l2 55 44 -115 c70 -185 91 -186 156 -6 24 65
42 101 47 93 4 -6 8 -48 8 -92 0 -98 6 -122 31 -128 24 -6 51 19 45 42 -2 9
-8 90 -11 181 -4 91 -11 173 -16 183 -11 20 -52 23 -66 5 -6 -7 -32 -71 -58
-141 -26 -70 -51 -129 -54 -132 -4 -2 -27 49 -51 113 -60 160 -66 172 -94 172
-13 0 -28 -6 -34 -12z"/>
<path d="M3310 3155 c-22 -26 3 -67 38 -63 24 3 27 7 27 38 0 30 -4 35 -26 38
-14 2 -31 -4 -39 -13z"/>
<path d="M3102 3138 c-7 -7 -12 -29 -12 -50 0 -27 -4 -38 -15 -38 -17 0 -36
-32 -27 -46 4 -6 14 -13 24 -17 13 -4 17 -24 20 -101 3 -82 6 -99 25 -117 41
-41 147 -20 130 25 -4 10 -19 16 -41 16 -41 0 -46 10 -46 100 l0 67 40 7 c34
5 40 10 40 30 0 25 -17 36 -56 36 -22 0 -24 4 -24 44 0 31 -5 46 -16 50 -22 8
-28 8 -42 -6z"/>
<path d="M2815 3038 c-45 -24 -60 -72 -26 -81 11 -2 32 4 48 14 46 31 93 20
93 -22 0 -13 -12 -17 -65 -21 -81 -5 -115 -31 -115 -89 0 -56 34 -92 88 -92
23 0 52 7 66 16 19 13 25 14 29 3 7 -17 41 -26 58 -16 15 10 14 206 -1 246
-18 46 -122 71 -175 42z m113 -172 c9 -10 -21 -46 -42 -52 -38 -9 -61 -1 -64
24 -2 15 3 25 20 32 21 9 75 6 86 -4z"/>
<path d="M3283 3043 c-21 -8 -15 -50 7 -56 18 -5 20 -14 20 -116 0 -95 2 -112
18 -120 11 -6 24 -6 35 0 15 9 17 28 17 144 0 123 -2 135 -19 145 -20 10 -57
12 -78 3z"/>
<path d="M3505 3038 c-45 -24 -60 -72 -26 -81 11 -2 32 4 48 14 46 31 93 20
93 -22 0 -13 -12 -17 -65 -21 -81 -5 -115 -31 -115 -89 0 -56 34 -92 88 -92
23 0 52 7 66 16 19 13 25 14 29 3 7 -17 41 -26 58 -16 15 10 14 206 -1 246
-18 46 -122 71 -175 42z m113 -172 c9 -10 -21 -46 -42 -52 -38 -9 -61 -1 -64
24 -2 15 3 25 20 32 21 9 75 6 86 -4z"/>
<path d="M3790 3022 c-55 -56 -29 -118 63 -148 58 -19 71 -32 54 -52 -8 -10
-24 -12 -56 -8 -95 12 -96 12 -99 -11 -4 -30 48 -56 115 -56 60 0 99 21 114
61 21 55 -12 101 -87 122 -82 23 -86 67 -5 57 26 -3 53 -7 60 -9 7 -2 18 5 24
14 20 30 -13 51 -88 56 -61 4 -66 3 -95 -26z"/>
<path d="M2962 2597 c-17 -20 -17 -417 -1 -428 15 -9 41 0 52 18 7 12 12 12
28 -3 24 -22 91 -22 125 0 35 23 54 74 54 141 0 92 -40 145 -110 145 -20 0
-45 -7 -56 -15 -10 -8 -22 -15 -26 -15 -5 0 -8 36 -8 79 0 63 -3 80 -16 85
-23 9 -30 8 -42 -7z m172 -209 c9 -12 16 -43 16 -68 0 -61 -21 -90 -65 -90
-56 0 -81 57 -55 127 21 55 76 71 104 31z"/>
<path d="M3301 2591 c-16 -30 -15 -421 2 -422 25 -3 42 3 50 18 8 12 11 12 28
-3 24 -22 90 -22 123 0 72 47 81 205 14 261 -34 29 -93 34 -124 10 -10 -8 -22
-15 -26 -15 -4 0 -8 37 -10 83 -3 76 -5 82 -25 85 -14 2 -26 -4 -32 -17z m171
-198 c23 -21 25 -109 2 -141 -18 -26 -60 -29 -90 -8 -15 12 -19 25 -17 67 4
82 58 125 105 82z"/>
<path d="M4142 2598 c-7 -7 -12 -39 -12 -80 0 -62 -9 -84 -25 -58 -3 6 -26 10
-50 10 -60 0 -99 -34 -115 -100 -33 -136 51 -241 153 -191 38 19 39 19 58 0
49 -49 56 -21 50 216 -6 201 -7 210 -26 213 -11 1 -26 -3 -33 -10z m-30 -205
c31 -28 21 -131 -16 -155 -6 -4 -24 -8 -39 -8 -23 0 -31 7 -43 37 -38 89 35
183 98 126z"/>
<path d="M2360 2583 c-8 -3 -27 -17 -42 -31 -23 -21 -28 -34 -28 -73 0 -68 26
-94 125 -127 78 -26 80 -28 83 -62 3 -24 -2 -38 -14 -47 -24 -18 -107 -16
-151 2 -31 13 -39 13 -50 2 -36 -36 43 -79 143 -79 100 -1 147 39 147 122 0
63 -27 91 -112 117 -89 27 -103 38 -99 77 4 43 39 54 124 37 55 -11 68 -11 74
0 14 21 -8 47 -48 59 -39 10 -126 12 -152 3z"/>
<path d="M4300 2575 c-26 -32 13 -81 48 -59 34 22 22 74 -18 74 -10 0 -23 -7
-30 -15z"/>
<path d="M4790 2575 c-26 -32 13 -81 48 -59 34 22 22 74 -18 74 -10 0 -23 -7
-30 -15z"/>
<path d="M2693 2460 c-12 -5 -30 -21 -39 -36 -17 -25 -17 -27 0 -39 19 -15 50
-10 67 11 24 29 79 13 79 -22 0 -22 -4 -24 -52 -24 -69 0 -115 -27 -123 -72
-8 -42 7 -83 36 -99 33 -17 96 -15 118 5 18 17 20 17 40 -3 17 -17 26 -19 41
-11 18 10 19 19 14 128 -6 113 -7 118 -35 145 -24 22 -38 27 -77 26 -26 0 -57
-4 -69 -9z m91 -166 c37 -14 -1 -64 -49 -64 -51 0 -58 41 -11 60 26 11 40 12
60 4z"/>
<path d="M3683 2460 c-12 -5 -30 -21 -39 -36 -17 -25 -17 -27 0 -39 19 -15 50
-10 67 11 24 29 79 13 79 -22 0 -22 -4 -24 -52 -24 -69 0 -115 -27 -123 -72
-8 -42 7 -83 36 -99 33 -17 96 -15 118 5 18 17 20 17 40 -3 17 -17 26 -19 41
-11 18 10 19 19 14 128 -6 113 -7 118 -35 145 -24 22 -38 27 -77 26 -26 0 -57
-4 -69 -9z m91 -166 c37 -14 -1 -64 -49 -64 -51 0 -58 41 -11 60 26 11 40 12
60 4z"/>
<path d="M4262 2458 c-18 -18 -15 -36 8 -48 18 -10 20 -21 20 -115 0 -111 10
-138 50 -128 19 5 20 13 20 148 0 121 -2 144 -16 149 -26 10 -69 7 -82 -6z"/>
<path d="M4446 2454 c-3 -9 -6 -74 -6 -144 0 -116 2 -130 19 -139 36 -20 49 6
53 105 3 100 19 134 63 134 38 0 45 -18 45 -127 0 -88 3 -104 18 -112 11 -6
24 -6 35 0 15 9 17 27 17 130 0 114 -1 121 -25 144 -28 29 -80 33 -125 10 -25
-13 -29 -13 -34 0 -7 20 -52 19 -60 -1z"/>
<path d="M4752 2458 c-18 -18 -15 -36 8 -48 18 -10 20 -21 20 -115 0 -111 10
-138 50 -128 19 5 20 13 20 148 0 121 -2 144 -16 149 -26 10 -69 7 -82 -6z"/>
<path d="M2556 1929 c-32 -25 -35 -70 -6 -99 41 -41 110 -13 110 43 0 38 -7
50 -37 66 -30 15 -36 14 -67 -10z m65 -9 c22 -12 26 -59 7 -78 -7 -7 -21 -12
-33 -12 -43 0 -61 53 -29 84 18 19 28 20 55 6z"/>
<path d="M2707 1943 c-4 -3 -7 -35 -7 -70 0 -49 3 -63 15 -63 11 0 15 12 15
48 l0 47 31 -47 c45 -69 61 -64 57 20 -3 76 -20 90 -28 22 l-5 -45 -23 36
c-26 43 -46 62 -55 52z"/>
<path d="M3120 1880 l0 -70 35 0 c19 0 35 5 35 10 0 6 -11 10 -25 10 -18 0
-25 5 -25 20 0 15 7 20 25 20 14 0 25 5 25 10 0 6 -11 10 -25 10 -18 0 -25 5
-25 20 0 15 7 20 25 20 14 0 25 5 25 10 0 6 -16 10 -35 10 l-35 0 0 -70z"/>
<path d="M3240 1880 c0 -78 17 -96 22 -22 l3 47 33 -47 c18 -27 37 -48 42 -48
6 0 10 32 10 70 0 81 -18 95 -22 18 l-3 -53 -34 53 c-18 28 -37 52 -42 52 -5
0 -9 -31 -9 -70z"/>
<path d="M2280 1875 c0 -37 4 -65 10 -65 6 0 10 14 10 30 0 23 4 30 20 30 11
0 20 5 20 10 0 6 -9 10 -20 10 -13 0 -20 7 -20 19 0 15 8 21 33 24 28 3 26 4
-10 5 l-43 2 0 -65z"/>
<path d="M2390 1875 c0 -51 3 -65 15 -65 9 0 15 9 15 25 0 14 4 25 8 25 5 0
15 -11 22 -25 7 -14 20 -25 28 -25 12 0 12 4 -2 25 -15 23 -15 27 -1 41 32 33
10 64 -47 64 l-38 0 0 -65z m67 44 c16 -16 5 -39 -18 -39 -14 0 -19 7 -19 25
0 26 18 33 37 14z"/>
<path d="M2873 1933 c14 -4 17 -16 17 -64 0 -33 4 -59 10 -59 6 0 10 25 10 55
0 48 3 57 23 65 17 7 11 9 -28 8 -27 0 -42 -2 -32 -5z"/>
<path d="M3400 1875 l0 -65 33 0 c48 0 77 24 77 64 0 42 -26 66 -73 66 l-37 0
0 -65z m74 39 c33 -32 14 -84 -31 -84 -21 0 -23 4 -23 50 0 43 3 50 19 50 11
0 27 -7 35 -16z"/>
<path d="M2990 1880 c0 -5 18 -10 40 -10 22 0 40 5 40 10 0 6 -18 10 -40 10
-22 0 -40 -4 -40 -10z"/>
</g>
</svg>
