<svg xmlns="http://www.w3.org/2000/svg" version="1.1" xmlns:xlink="http://www.w3.org/1999/xlink" xmlns:svgjs="http://svgjs.dev/svgjs" width="1440" height="560" preserveAspectRatio="none" viewBox="0 0 1440 560"><g mask="url(&quot;#SvgjsMask1000&quot;)" fill="none"><rect width="1440" height="560" x="0" y="0" fill="#0e2a47"></rect><path d="M 0,114 C 57.6,123.6 172.8,172.2 288,162 C 403.2,151.8 460.8,65.2 576,63 C 691.2,60.8 748.8,142.8 864,151 C 979.2,159.2 1036.8,92 1152,104 C 1267.2,116 1382.4,189.6 1440,211L1440 560L0 560z" fill="#184a7e"></path><path d="M 0,545 C 96,502.4 288,356 480,332 C 672,308 768,417.6 960,425 C 1152,432.4 1344,380.2 1440,369L1440 560L0 560z" fill="#2264ab"></path></g><defs><mask id="SvgjsMask1000"><rect width="1440" height="560" fill="#ffffff"></rect></mask></defs></svg>